<svg width="100" height="100" viewBox="0 0 100 100" fill="none" xmlns="http://www.w3.org/2000/svg">
<path d="M38.828 34.1562L29.453 63.4063C29.3974 63.5688 29.3811 63.7422 29.4056 63.9123C29.43 64.0823 29.4944 64.2442 29.5936 64.3845C29.6927 64.5248 29.8237 64.6396 29.9758 64.7194C30.128 64.7993 30.2969 64.8419 30.4687 64.8437H33.0937C33.328 64.843 33.5557 64.7666 33.743 64.6258C33.9303 64.485 34.067 64.2874 34.1327 64.0625L35.6015 59.375H48.4374L48.2577 59.0859L49.8671 64.0625C49.9328 64.2874 50.0695 64.485 50.2568 64.6258C50.4441 64.7666 50.6719 64.843 50.9062 64.8437H53.5312C53.7031 64.8448 53.8728 64.8049 54.0264 64.7275C54.1799 64.6501 54.3129 64.5374 54.4143 64.3986C54.5158 64.2597 54.5828 64.0988 54.6099 63.929C54.637 63.7592 54.6234 63.5854 54.5702 63.4219L45.1952 34.1719C45.1284 33.9476 44.9914 33.7507 44.8044 33.6101C44.6173 33.4695 44.3901 33.3926 44.1562 33.3906H39.8437C39.6154 33.3953 39.3944 33.4717 39.212 33.6092C39.0297 33.7466 38.8953 33.9381 38.828 34.1562ZM37.164 54.6875L41.9999 39.6328L46.8749 54.6875H37.164Z" fill="#145526"/>
<path d="M65.3125 33.3984H62.8125C62.2084 33.3984 61.7188 33.8881 61.7188 34.4922V63.7422C61.7188 64.3462 62.2084 64.8359 62.8125 64.8359H65.3125C65.9166 64.8359 66.4062 64.3462 66.4062 63.7422V34.4922C66.4062 33.8881 65.9166 33.3984 65.3125 33.3984Z" fill="#145526"/>
<path d="M52.5469 76.5625H29.8125C28.1217 76.5625 26.5002 75.8909 25.3047 74.6953C24.1091 73.4998 23.4375 71.8783 23.4375 70.1875V29.8125C23.4375 28.1218 24.1091 26.5003 25.3047 25.3047C26.5002 24.1092 28.1217 23.4375 29.8125 23.4375H70.1875C71.8783 23.4375 73.4998 24.1092 74.6953 25.3047C75.8909 26.5003 76.5625 28.1218 76.5625 29.8125V50C76.5768 50.4262 76.7588 50.8295 77.069 51.1222C77.3792 51.4148 77.7924 51.5731 78.2188 51.5625C79.5491 51.5585 80.8622 51.8634 82.0547 52.4531C82.3022 52.5801 82.5784 52.6408 82.8564 52.6292C83.1344 52.6176 83.4046 52.5342 83.6407 52.387C83.8767 52.2398 84.0707 52.034 84.2035 51.7895C84.3363 51.5451 84.4035 51.2704 84.3984 50.9922V29.8125C84.3984 27.9474 84.0307 26.1006 83.3162 24.3778C82.6018 22.6549 81.5546 21.0899 80.2347 19.7721C78.9148 18.4544 77.348 17.4099 75.624 16.6982C73.9 15.9866 72.0526 15.6219 70.1875 15.625H29.8125C26.0497 15.625 22.4411 17.1198 19.7804 19.7804C17.1198 22.4411 15.625 26.0498 15.625 29.8125V70.1875C15.625 73.9503 17.1198 77.5589 19.7804 80.2196C22.4411 82.8803 26.0497 84.375 29.8125 84.375H55.8281C56.1478 84.3754 56.4604 84.2811 56.7265 84.1039C56.9926 83.9267 57.2002 83.6746 57.3231 83.3795C57.446 83.0844 57.4786 82.7595 57.417 82.4458C57.3553 82.1322 57.202 81.8438 56.9766 81.6172C55.761 80.5019 54.7762 79.1588 54.0781 77.6641C53.9663 77.3459 53.7595 77.0696 53.4856 76.8726C53.2118 76.6756 52.8842 76.5674 52.5469 76.5625Z" fill="#145526"/>
<path d="M87.289 79.5312L94.3671 76.7422C94.5129 76.6846 94.6379 76.5845 94.726 76.4549C94.8141 76.3254 94.8612 76.1723 94.8612 76.0156C94.8612 75.8589 94.8141 75.7059 94.726 75.5763C94.6379 75.4467 94.5129 75.3467 94.3671 75.2891L87.289 72.5C86.036 72.0046 84.898 71.2574 83.9453 70.3047C82.9925 69.3519 82.2454 68.2139 81.75 66.9609L78.9609 59.9297C78.903 59.7843 78.8028 59.6597 78.6732 59.5719C78.5437 59.4842 78.3908 59.4373 78.2343 59.4375C78.0779 59.4373 77.925 59.4842 77.7954 59.5719C77.6659 59.6597 77.5657 59.7843 77.5078 59.9297L74.7187 66.9609C74.2245 68.2146 73.4778 69.3533 72.5249 70.3062C71.572 71.2591 70.4333 72.0058 69.1796 72.5L62.1484 75.2891C62.0027 75.3467 61.8776 75.4467 61.7895 75.5763C61.7014 75.7059 61.6543 75.8589 61.6543 76.0156C61.6543 76.1723 61.7014 76.3254 61.7895 76.4549C61.8776 76.5845 62.0027 76.6846 62.1484 76.7422L69.1796 79.5312C70.4333 80.0255 71.572 80.7722 72.5249 81.7251C73.4778 82.678 74.2245 83.8166 74.7187 85.0703L77.5078 92.1016C77.5644 92.2484 77.6641 92.3747 77.7937 92.4639C77.9234 92.5531 78.077 92.6011 78.2343 92.6016C78.3917 92.6011 78.5453 92.5531 78.6749 92.4639C78.8046 92.3747 78.9042 92.2484 78.9609 92.1016L81.75 85.0703C82.2454 83.8173 82.9925 82.6793 83.9453 81.7266C84.898 80.7738 86.036 80.0267 87.289 79.5312Z" fill="#145526"/>
</svg>
